HIERARCHY
ROOT Hips
{
	OFFSET 0.00000 0.00000 0.00000
	CHANNELS 6 Xposition Yposition Zposition Zrotation Yrotation Xrotation 
	JOINT LHipJoint
	{
		OFFSET 0 0 0
		CHANNELS 3 Zrotation Yrotation Xrotation
		JOINT LeftUpLeg
		{
			OFFSET 1.92384 -1.64427 0.83032
			CHANNELS 3 Zrotation Yrotation Xrotation
			JOINT LeftLeg
			{
				OFFSET 2.52872 -6.94761 0.00000
				CHANNELS 3 Zrotation Yrotation Xrotation
				JOINT LeftFoot
				{
					OFFSET 2.51827 -6.91890 0.00000
					CHANNELS 3 Zrotation Yrotation Xrotation
					JOINT LeftToeBase
					{
						OFFSET 0.22757 -0.62524 2.06528
						CHANNELS 3 Zrotation Yrotation Xrotation
						End Site
						{
							OFFSET 0.00000 -0.00000 1.08218
						}
					}
				}
			}
		}
	}
	JOINT RHipJoint
	{
		OFFSET 0 0 0
		CHANNELS 3 Zrotation Yrotation Xrotation
		JOINT RightUpLeg
		{
			OFFSET -2.09517 -1.64427 0.83032
			CHANNELS 3 Zrotation Yrotation Xrotation
			JOINT RightLeg
			{
				OFFSET -2.55173 -7.01082 0.00000
				CHANNELS 3 Zrotation Yrotation Xrotation
				JOINT RightFoot
				{
					OFFSET -2.50265 -6.87598 0.00000
					CHANNELS 3 Zrotation Yrotation Xrotation
					JOINT RightToeBase
					{
						OFFSET -0.22612 -0.62126 1.98677
						CHANNELS 3 Zrotation Yrotation Xrotation
						End Site
						{
							OFFSET -0.00000 -0.00000 1.04433
						}
					}
				}
			}
		}
	}
	JOINT LowerBack
	{
		OFFSET 0 0 0
		CHANNELS 3 Zrotation Yrotation Xrotation
		JOINT Spine
		{
			OFFSET 0.02839 1.68926 0.31690
			CHANNELS 3 Zrotation Yrotation Xrotation
			JOINT Spine1
			{
				OFFSET -0.01522 1.70183 0.21192
				CHANNELS 3 Zrotation Yrotation Xrotation
				JOINT Neck
				{
					OFFSET 0 0 0
					CHANNELS 3 Zrotation Yrotation Xrotation
					JOINT Neck1
					{
						OFFSET -0.04523 1.88988 0.10630
						CHANNELS 3 Zrotation Yrotation Xrotation
						JOINT Head
						{
							OFFSET 0.05172 1.78070 -0.56858
							CHANNELS 3 Zrotation Yrotation Xrotation
							End Site
							{
								OFFSET 0.01532 1.90392 -0.20434
							}
						}
					}
				}
				JOINT LeftShoulder
				{
					OFFSET 0 0 0
					CHANNELS 3 Zrotation Yrotation Xrotation
					JOINT LeftArm
					{
						OFFSET 3.25522 0.75486 0.22086
						CHANNELS 3 Zrotation Yrotation Xrotation
						JOINT LeftForeArm
						{
							OFFSET 4.85645 -0.00000 0.00000
							CHANNELS 3 Zrotation Yrotation Xrotation
							JOINT LeftHand
							{
								OFFSET 2.79874 -0.00000 0.00000
								CHANNELS 3 Zrotation Yrotation Xrotation
								JOINT LeftFingerBase
								{
									OFFSET 0 0 0
									CHANNELS 3 Zrotation Yrotation Xrotation
									JOINT LeftHandIndex1
									{
										OFFSET 0.57340 -0.00000 0.00000
										CHANNELS 3 Zrotation Yrotation Xrotation
										End Site
										{
											OFFSET 0.46229 -0.00000 0.00000
										}
									}
								}
								JOINT LThumb
								{
									OFFSET 0 0 0
									CHANNELS 3 Zrotation Yrotation Xrotation
									End Site
									{
										OFFSET 0.46935 -0.00000 0.46935
									}
								}
							}
						}
					}
				}
				JOINT RightShoulder
				{
					OFFSET 0 0 0
					CHANNELS 3 Zrotation Yrotation Xrotation
					JOINT RightArm
					{
						OFFSET -3.29079 0.52751 0.36356
						CHANNELS 3 Zrotation Yrotation Xrotation
						JOINT RightForeArm
						{
							OFFSET -4.67018 -0.00000 0.00000
							CHANNELS 3 Zrotation Yrotation Xrotation
							JOINT RightHand
							{
								OFFSET -2.65534 -0.00000 0.00000
								CHANNELS 3 Zrotation Yrotation Xrotation
								JOINT RightFingerBase
								{
									OFFSET 0 0 0
									CHANNELS 3 Zrotation Yrotation Xrotation
									JOINT RightHandIndex1
									{
										OFFSET -0.59407 -0.00000 0.00000
										CHANNELS 3 Zrotation Yrotation Xrotation
										End Site
										{
											OFFSET -0.47895 -0.00000 0.00000
										}
									}
								}
								JOINT RThumb
								{
									OFFSET 0 0 0
									CHANNELS 3 Zrotation Yrotation Xrotation
									End Site
									{
										OFFSET -0.48627 -0.00000 0.48627
									}
								}
							}
						}
					}
				}
			}
		}
	}
}
MOTION
Frames: 9
Frame Time: .0083333
24.2725 16.4514 31.381 0 0 0 0 0 0 -21 0 0 0 0 0 0 0 0 0 0 0 0 0 0 21 0 0 0 0 0 0 0 0 0 0 0 0 0 0 0 0 0 0 0 0 0 0 -16 0 0 21 0 0 11 0 0 0 -8 0 0 0 0 0 0 0 0 0 0 0 0 0 0 0 0 0 0 0 0 8 0 0 0 0 0 0 0 0 0 0 0 0 0 0 0 0 0
24.2725 16.4514 31.3810 176.5730 8.4554 -143.1690 0.0000 0.0000 0.0000 -14.9460 -26.5416 -54.6163 3.2208 11.0442 32.4292 -0.0912 10.6316 -13.6430 0.1761 -2.7033 -7.4538 0.0000 0.0000 0.0000 11.8006 13.5054 -57.2540 -13.1410 -18.8325 69.5628 0.2172 -10.4941 -10.7841 -0.0097 0.6356 -1.7467 8.5344 7.1071 -8.8706 -20.8266 19.5050 -27.5692 -31.8111 10.0200 -16.2818 7.9055 -2.3343 -9.9426 12.0475 -22.8423 45.3867 -1.1946 -9.2103 21.9518 0.0000 -0.0000 0.0000 -21.6262 7.5530 112.4701 126.1234 -54.4442 -90.7001 -0.0000 0.0000 -51.9827 7.8822 41.5198 5.2434 -7.1250 0.0000 -0.0000 -39.6486 67.8002 -23.1141 0.0000 -0.0000 0.0000 123.2362 -45.7884 20.7487 -109.3384 58.5387 -76.6654 0.0000 -0.0000 -30.0624 -10.5546 -19.5495 3.5677 7.1250 -0.0000 -0.0000 17.3417 -49.0385 -1.7757
24.2753 16.4410 31.2963 176.6820 8.4157 -143.1650 0.0000 0.0000 0.0000 -15.0143 -26.4200 -54.5508 3.3211 11.1976 32.9492 -0.0555 10.5431 -14.1204 0.2010 -2.8866 -7.9632 0.0000 0.0000 0.0000 11.5961 13.9915 -58.0846 -13.1511 -18.8360 69.5940 0.0963 -9.3086 -11.3889 -0.0307 1.1310 -3.1093 8.9846 7.1090 -8.8738 -20.7880 19.5682 -27.6806 -32.0727 9.9697 -16.2923 8.4333 -2.1656 -8.8660 12.0218 -22.4991 45.2463 -1.0094 -9.1850 21.3817 -0.0000 0.0000 0.0000 -21.3586 8.0307 112.5641 126.1929 -54.4202 -90.7566 -0.0000 0.0000 -51.8551 7.9414 41.9304 5.3255 -7.1250 0.0000 -0.0000 -40.2979 68.1205 -23.8205 -0.0000 0.0000 0.0000 123.1834 -45.9456 21.1178 -108.8395 58.6155 -76.2397 0.0000 -0.0000 -30.1751 -8.7975 -22.3380 3.3663 7.1250 -0.0000 -0.0000 20.2579 -51.4164 -3.3162
24.2790 16.4345 31.2049 176.8190 8.4173 -143.1900 0.0000 0.0000 0.0000 -15.0807 -26.2740 -54.3792 3.4144 11.3374 33.4264 -0.0101 10.4945 -14.7871 0.1881 -2.7931 -7.7033 0.0000 0.0000 0.0000 11.4314 14.4984 -58.8162 -13.1207 -18.8253 69.5000 0.0456 -8.7503 -11.5709 -0.0563 1.5311 -4.2114 8.8551 7.2411 -8.6860 -20.7252 19.6136 -27.5295 -31.8631 9.9995 -16.2281 8.0861 -2.2852 -9.8949 11.8400 -22.7374 45.5007 -1.2958 -9.1531 21.9234 0.0000 -0.0000 0.0000 -21.5579 7.7534 112.5846 126.2445 -54.4022 -90.7987 -0.0000 0.0000 -51.7114 8.0893 41.6902 5.4002 -7.1250 0.0000 -0.0000 -39.7314 67.9903 -23.3327 0.0000 -0.0000 0.0000 123.1787 -45.7179 20.7762 -109.1950 58.5610 -76.5430 0.0000 -0.0000 -30.2327 -9.3406 -21.5346 3.4551 7.1250 -0.0000 -0.0000 19.3545 -50.7467 -2.8320
24.2825 16.4232 31.1215 176.9070 8.5084 -143.1510 0.0000 0.0000 0.0000 -15.1568 -26.1558 -54.3345 3.5099 11.4780 33.9094 0.0257 10.5009 -15.3448 0.1887 -2.7979 -7.7167 0.0000 0.0000 0.0000 11.0923 15.1213 -59.6751 -13.0794 -18.8106 69.3719 -0.0129 -8.1063 -11.8157 -0.0710 1.7191 -4.7299 9.1396 7.2738 -8.6827 -20.6917 19.6817 -27.6121 -32.0052 9.9776 -16.2395 8.7113 -2.1946 -8.9842 11.6177 -22.4095 45.3683 -1.2263 -9.1044 21.3373 -0.0000 0.0000 0.0000 -21.4224 8.1164 112.5925 126.3153 -54.3776 -90.8562 -0.0000 0.0000 -51.5643 8.2453 41.7653 5.5132 -7.1250 0.0000 -0.0000 -39.7039 68.0943 -23.4043 -0.0000 0.0000 0.0000 123.3690 -46.0477 20.6633 -109.7971 58.4660 -77.0565 0.0000 -0.0000 -30.0475 -9.0063 -21.8105 3.3701 7.1250 -0.0000 -0.0000 19.8015 -50.9539 -3.0056
24.2849 16.4049 31.0450 176.7990 8.5144 -143.1760 0.0000 0.0000 0.0000 -15.3805 -26.2168 -54.2160 3.5947 11.6006 34.3332 0.0564 10.5231 -15.8246 0.1907 -2.8124 -7.7569 0.0000 0.0000 0.0000 10.5948 15.5491 -60.6159 -13.0162 -18.7880 69.1757 -0.0640 -7.5631 -12.0758 -0.1058 2.0971 -5.7741 9.0168 7.3282 -8.5275 -20.7022 19.6700 -27.4667 -31.9364 9.9873 -16.1697 8.0193 -2.2189 -9.6545 11.9640 -22.7116 45.4990 -1.2038 -9.1768 21.8951 0.0000 -0.0000 0.0000 -21.6006 7.8874 112.5370 126.3109 -54.3792 -90.8526 -0.0000 0.0000 -51.4856 6.8242 44.6058 4.8037 -7.1250 0.0000 -0.0000 -46.5038 69.6175 -29.5154 0.0000 -0.0000 0.0000 123.2821 -45.7107 20.5863 -109.3513 58.5367 -76.6764 0.0000 -0.0000 -29.8755 -8.5057 -22.5522 3.2827 7.1250 -0.0000 -0.0000 20.6421 -51.5693 -3.4634
24.2904 16.3962 30.9538 176.9650 8.6708 -143.2630 0.0000 0.0000 0.0000 -15.4606 -26.0186 -53.9453 3.6815 11.7240 34.7626 0.0923 10.6156 -16.4497 0.1836 -2.7595 -7.6098 0.0000 0.0000 0.0000 10.3282 16.2194 -61.2150 -12.8851 -18.7403 68.7682 -0.1112 -7.1471 -12.4316 -0.1233 2.2637 -6.2350 9.2706 7.3884 -8.3845 -20.6209 19.7516 -27.5262 -32.0483 9.9441 -16.2588 8.8768 -2.1184 -8.8866 11.4846 -22.2794 45.4375 -1.2799 -9.0429 21.2916 -0.0000 0.0000 0.0000 -21.4896 8.3139 112.5027 126.3625 -54.3612 -90.8945 -0.0000 0.0000 -51.3864 8.4417 41.5534 5.6223 -7.1250 0.0000 -0.0000 -39.1394 67.9987 -22.9509 -0.0000 0.0000 0.0000 123.2231 -45.8430 20.6992 -109.2887 58.5464 -76.6230 0.0000 -0.0000 -29.9531 -8.6349 -22.3422 3.3039 7.1250 -0.0000 -0.0000 20.4138 -51.3937 -3.3319
24.2935 16.3865 30.8683 176.9230 8.6442 -143.3130 0.0000 0.0000 0.0000 -15.6146 -26.0885 -53.7023 3.7588 11.8323 35.1414 0.1228 10.6632 -16.9192 0.1806 -2.7375 -7.5488 0.0000 0.0000 0.0000 9.8935 16.6891 -62.0024 -12.7253 -18.6807 68.2702 -0.1382 -6.8971 -12.6197 -0.1609 2.5842 -7.1231 9.0772 7.4188 -8.0958 -20.5641 19.7052 -27.3723 -31.9405 9.9077 -16.3359 9.0556 -2.1607 -9.4055 11.1578 -22.1834 45.5095 -1.4672 -8.9108 21.3606 -0.0000 0.0000 0.0000 -21.6556 8.1338 112.4801 126.4052 -54.3463 -90.9292 -0.0000 0.0000 -51.3464 8.7429 41.4810 5.8164 -7.1250 0.0000 -0.0000 -38.7088 68.0385 -22.7027 -0.0000 0.0000 0.0000 123.2778 -45.6937 20.3258 -109.6087 58.4961 -76.8958 0.0000 -0.0000 -29.8840 -9.1208 -21.3425 3.3440 7.1250 -0.0000 -0.0000 19.4710 -50.5303 -2.7440
24.2993 16.3758 30.7816 177.0520 8.8140 -143.3570 0.0000 0.0000 0.0000 -15.6622 -25.9718 -53.4718 3.8358 11.9387 35.5153 0.1456 10.8603 -17.4621 0.1839 -2.7617 -7.6161 0.0000 0.0000 0.0000 9.5392 17.3942 -62.6633 -12.5094 -18.5978 67.5946 -0.1764 -6.5624 -12.9045 -0.2089 2.9424 -8.1185 9.1132 7.5107 -7.8891 -20.4993 19.7741 -27.3429 -31.9236 9.8941 -16.4010 9.0918 -2.1356 -9.4893 11.0696 -22.2172 45.6427 -1.5344 -8.9118 21.4657 0.0000 -0.0000 0.0000 -21.6791 8.2277 112.4106 126.4405 -54.3340 -90.9579 -0.0000 0.0000 -51.2958 8.9468 41.3799 5.9414 -7.1250 0.0000 -0.0000 -38.3284 68.0262 -22.4441 0.0000 -0.0000 0.0000 123.2692 -45.7103 20.2755 -109.7294 58.4769 -76.9988 0.0000 -0.0000 -29.7768 -8.6685 -21.8904 3.2533 7.1250 -0.0000 -0.0000 20.1588 -50.9751 -3.0744
